<?xml version="1.0" encoding="utf-8"?><svg xmlns="http://www.w3.org/2000/svg" xmlns:xlink="http://www.w3.org/1999/xlink"><symbol viewBox="0 0 90 90" id="facebook"><path d="M90 15c0-7.88-7.116-15-15-15H15C7.116 0 0 7.12 0 15v60c0 7.88 7.116 15 15 15h30V56H34V41h11v-5.844C45 25.076 52.568 16 61.875 16H74v15H61.875C60.548 31 59 32.61 59 35.024V41h15v15H59v34h16c7.884 0 15-7.12 15-15V15z"/></symbol><symbol viewBox="0 0 533.333 533.333" id="gplus"><path d="M.42 452.95zm122.45-158.602c47.92 1.427 80.068-48.28 71.802-111.04C186.394 120.558 140.82 70.2 92.898 68.765c-47.932-1.422-80.074 46.605-71.8 109.375 8.273 62.743 53.83 114.778 101.77 116.208zm410.463-161.015V88.9c0-48.895-39.99-88.9-88.884-88.9H88.896C40.837 0 1.393 38.663.063 86.42c30.397-26.764 72.564-49.123 116.08-49.123h186.065l-41.64 35.218h-58.993c39.13 15.002 59.977 60.48 59.977 107.147 0 39.192-21.776 72.893-52.546 96.858-30.022 23.387-35.714 33.18-35.714 53.062 0 16.968 32.16 45.833 48.975 57.7 49.157 34.656 65.06 66.83 65.06 120.55 0 8.56-1.063 17.1-3.16 25.5H444.45c48.894 0 88.884-39.973 88.884-88.9V166.668h-100v100H400v-100H300v-33.333h100v-100h33.334v100h100zM96.815 398.925c11.257 0 21.574-.308 32.258-.308-14.14-13.715-25.326-30.52-25.326-51.24 0-12.294 3.94-24.133 9.444-34.645-5.614.4-11.347.518-17.25.518-38.728 0-71.62-12.54-95.94-33.258v35.022l.003 105.068c27.834-13.216 60.88-21.157 96.813-21.157zM1.78 462.113a88.348 88.348 0 0 1 .002 0zm235.433 34.16c-7.843-30.628-35.653-45.812-74.42-72.69-14.1-4.547-29.633-7.227-46.3-7.4C69.82 415.68 26.333 434.38 1.8 462.21c8.292 40.472 44.29 71.123 87.1 71.123h149.19c.947-5.796 1.405-11.788 1.405-17.933 0-6.53-.8-12.913-2.28-19.127z"/></symbol><symbol viewBox="0 0 430.117 430.118" id="linkedin"><path d="M398.355 0H31.782C14.23 0 .002 13.793.002 30.817v368.47c0 17.026 14.232 30.83 31.78 30.83h366.573c17.55 0 31.76-13.813 31.76-30.83V30.817c0-17.02-14.21-30.816-31.76-30.816zM130.4 360.038H65.413V165.845H130.4v194.193zM97.913 139.315h-.437c-21.793 0-35.92-14.904-35.92-33.563 0-19.035 14.542-33.535 36.767-33.535 22.227 0 35.9 14.496 36.33 33.535 0 18.663-14.098 33.563-36.74 33.563zM364.66 360.038h-64.967v-103.9c0-26.107-9.413-43.92-32.907-43.92-17.973 0-28.642 12.017-33.327 23.62-1.738 4.144-2.168 9.94-2.168 15.728v108.468H166.34s.85-175.98 0-194.192h64.963v27.53c8.624-13.228 24.035-32.1 58.534-32.1 42.76 0 74.822 27.74 74.822 87.415v111.35zM230.882 193.99c.11-.182.266-.4.42-.614v.614h-.42z"/></symbol><symbol viewBox="0 0 430.117 430.117" id="twitter"><path d="M381.384 198.64c24.157-1.994 40.543-12.976 46.85-27.877-8.715 5.353-35.765 11.19-50.704 5.63-.732-3.51-1.55-6.843-2.353-9.853-11.383-41.798-50.357-75.472-91.194-71.404a172.692 172.692 0 0 1 9.996-3.69c4.493-1.61 30.866-5.902 26.713-15.21-3.5-8.19-35.722 6.187-41.79 8.066 8.01-3.012 21.255-8.193 22.674-17.396-12.27 1.683-24.315 7.484-33.622 15.92 3.36-3.618 5.91-8.026 6.45-12.77C241.68 90.963 222.563 133.113 207.092 174c-12.148-11.773-22.915-21.044-32.574-26.192-27.097-14.53-59.496-29.692-110.355-48.572-1.56 16.827 8.322 39.2 36.8 54.08-6.17-.826-17.453 1.017-26.477 3.178 3.675 19.277 15.677 35.16 48.17 42.84-14.85.98-22.524 4.358-29.48 11.64 6.764 13.408 23.267 29.187 52.954 25.948-33.006 14.226-13.458 40.57 13.4 36.642C113.712 320.887 41.48 317.41 0 277.828c108.3 147.572 343.716 87.274 378.8-54.866 26.284.224 41.736-9.105 51.317-19.39-15.144 2.57-37.094-.086-48.733-4.933z"/></symbol></svg>